<svg width="358" height="136" viewBox="0 0 358 136" fill="none" xmlns="http://www.w3.org/2000/svg">
<path d="M184 68C184 76.9299 181.297 85.7723 176.045 94.0225C170.794 102.273 163.096 109.769 153.393 116.083C143.689 122.398 132.169 127.406 119.49 130.824C106.812 134.241 93.2231 136 79.5 136C65.7769 136 52.1881 134.241 39.5096 130.824C26.8311 127.406 15.3111 122.398 5.60734 116.083C-4.09639 109.769 -11.7938 102.273 -17.0454 94.0225C-22.297 85.7723 -25 76.9299 -25 68L79.5 68H184Z" fill="#FFC93C"/>
<circle cx="316" cy="83" r="3" fill="#FFC93C"/>
<circle cx="345" cy="77" r="3" fill="#FFC93C"/>
<circle cx="293" cy="80" r="3" fill="#FFC93C"/>
<circle cx="355" cy="100" r="3" fill="#FFC93C"/>
<circle cx="287.5" cy="97.5" r="3.5" fill="#FFC93C"/>
</svg>
